<?xml version="1.0" standalone="no"?>
<!DOCTYPE svg PUBLIC "-//W3C//DTD SVG 20010904//EN"
 "http://www.w3.org/TR/2001/REC-SVG-20010904/DTD/svg10.dtd">
<svg version="1.0" xmlns="http://www.w3.org/2000/svg"
 width="64.000000pt" height="64.000000pt" viewBox="0 0 64.000000 64.000000"
 preserveAspectRatio="xMidYMid meet">

<g transform="translate(0.000000,64.000000) scale(0.100000,-0.100000)"
fill="#000000" stroke="none">
<path d="M235 572 c-17 -10 -50 -21 -74 -25 -24 -3 -56 -14 -70 -24 -35 -25
-80 -118 -87 -178 -5 -42 -2 -55 16 -78 18 -23 29 -28 51 -25 28 4 29 3 29
-41 0 -105 67 -151 220 -151 153 0 220 46 220 151 0 44 1 45 29 41 22 -3 33 2
51 25 18 23 21 36 16 78 -7 60 -52 153 -87 178 -14 10 -46 21 -70 24 -24 4
-57 15 -74 25 -19 12 -49 18 -85 18 -36 0 -66 -6 -85 -18z m155 -27 c45 -23
70 -76 96 -203 28 -137 29 -163 9 -201 -16 -31 -77 -61 -125 -61 -26 0 -30 4
-30 28 0 16 9 37 20 47 24 22 26 60 4 69 -20 8 -68 8 -88 0 -22 -9 -20 -47 4
-69 11 -10 20 -31 20 -47 0 -24 -4 -28 -30 -28 -48 0 -109 30 -125 61 -20 37
-19 58 6 186 24 128 50 188 93 214 37 23 106 25 146 4z m-217 -37 c-14 -18
-41 -104 -50 -163 -7 -39 -14 -53 -35 -64 -22 -13 -28 -13 -43 -1 -40 33 17
199 77 225 42 18 64 19 51 3z m343 -3 c27 -11 40 -26 59 -68 34 -74 42 -138
20 -157 -15 -12 -21 -12 -43 1 -21 11 -28 25 -35 64 -9 59 -36 145 -50 163
-13 17 5 16 49 -3z m-168 -317 c-6 -17 -50 -17 -55 0 -3 8 6 12 27 12 21 0 30
-4 28 -12z"/>
<path d="M212 398 c-15 -15 -16 -48 -2 -48 6 0 13 7 16 15 4 8 12 15 20 15 8
0 14 -7 14 -15 0 -8 4 -15 9 -15 17 0 22 19 11 40 -12 22 -49 27 -68 8z"/>
<path d="M360 395 c-13 -16 -7 -45 10 -45 5 0 10 7 10 15 0 8 6 15 14 15 8 0
16 -7 20 -15 8 -21 26 -19 26 3 0 39 -55 58 -80 27z"/>
</g>
</svg>
