<?xml version="1.0" standalone="no"?>
<!DOCTYPE svg PUBLIC "-//W3C//DTD SVG 20010904//EN"
 "http://www.w3.org/TR/2001/REC-SVG-20010904/DTD/svg10.dtd">
<svg version="1.0" xmlns="http://www.w3.org/2000/svg"
 width="256.000000pt" height="256.000000pt" viewBox="0 0 256.000000 256.000000"
 preserveAspectRatio="xMidYMid meet">

<g transform="translate(0.000000,256.000000) scale(0.100000,-0.100000)"
fill="#000000" stroke="none">
<path d="M1116 2549 c-483 -67 -895 -404 -1046 -857 -50 -152 -64 -242 -64
-412 0 -171 14 -260 65 -415 121 -362 433 -673 797 -795 152 -50 242 -64 412
-64 274 0 482 62 710 212 277 183 475 480 547 822 24 117 24 363 0 480 -57
271 -178 492 -371 678 -182 175 -391 286 -641 337 -96 20 -314 28 -409 14z
m354 -794 l0 -285 285 0 285 0 0 -190 0 -190 -285 0 -285 0 0 -285 0 -285
-190 0 -190 0 0 285 0 285 -285 0 -285 0 0 190 0 190 285 0 285 0 0 285 0 285
190 0 190 0 0 -285z"/>
</g>
</svg>
